# xmcd
#
# Track frame offsets: 
#        180
#        39338
#        61021
#        92453
#        116445
#        139538
#        165229
#        186466
#        213535
#        234265
#        262348
#
# Disc length: 4283 seconds
#
# Revision: 0
# Processed by: cddbd v1.5.2PL0 Copyright (c) Steve Scherf et al.
# Submitted via: ExactAudioCopy v0.99pb3
#
DISCID=8d10b90b
DTITLE=Various Artist - Eric Clapton and Friends Legend Jams
DYEAR=1989
DGENRE=Blues
TTITLE0=01 - Mean Woman Blues
TTITLE1=02 - Match Box
TTITLE2=03 - Roll Over Beethoven-Maybelline-Whole Lotta Shakin' Going 
TTITLE2=On
TTITLE3=04 - Blue Suede Shoes
TTITLE4=05 - Going Down The Road Feeling Bad
TTITLE5=06 - Smoking Gun
TTITLE6=07 - Playing In The Dirt
TTITLE7=08 - The Last Time
TTITLE8=09 - Bad Influence
TTITLE9=10 - Phone Booth
TTITLE10=11 - Right Next Door
EXTD=
EXTT0=
EXTT1=
EXTT2=
EXTT3=
EXTT4=
EXTT5=
EXTT6=
EXTT7=
EXTT8=
EXTT9=
EXTT10=
PLAYORDER=
